<svg width="261" height="55" viewBox="0 0 261 55" fill="none" xmlns="http://www.w3.org/2000/svg">
<path d="M196.623 25.5057L195.029 25.6587C183.164 26.4918 182.825 20.8469 182.825 21.017C182.571 32.3747 188.571 34.024 200.301 32.1707C203.369 31.6776 205.759 31.4226 207.606 31.3036H208.369C212.268 31.0995 213.454 31.5756 213.658 31.7116C213.861 31.8477 213.658 31.7116 213.658 31.5416C213.81 29.3143 209.624 24.1114 196.623 25.5057Z" fill="#8CBA24"/>
<path d="M44.6809 1.29346H0V6.76832H19.442V52.8286H25.3237V6.76832H44.6809V1.29346Z" fill="#F9F9F9"/>
<path d="M62.7164 1.41309L41.7998 52.8292H48.0714L65.7336 8.4862L83.328 52.8292H89.6335L68.7338 1.41309H62.7164Z" fill="#F9F9F9"/>
<path d="M141.196 29.0935C142.724 27.6355 143.924 25.8658 144.713 23.9037C145.503 21.9416 145.864 19.8326 145.772 17.7187C145.882 15.5924 145.521 13.4681 144.715 11.4985C143.909 9.52884 142.678 7.76267 141.111 6.32686C137.789 3.1757 132.523 1.53777 125.313 1.41309H98.3115V52.8292H104.193V6.80294H125.195C130.992 6.91629 134.885 8.01013 136.873 10.0845C137.853 11.0999 138.622 12.301 139.134 13.6176C139.646 14.9341 139.892 16.3398 139.857 17.7527C139.889 19.152 139.645 20.544 139.139 21.8484C138.633 23.1528 137.874 24.3438 136.907 25.3529C134.941 27.4102 131.059 28.5154 125.262 28.6344H113.906V34.0412H125.246C126.787 34.0343 128.327 33.9321 129.856 33.7352L139.28 52.8632H145.84L135.687 32.307C137.699 31.572 139.564 30.4838 141.196 29.0935Z" fill="#F9F9F9"/>
<path d="M213.658 31.6945C213.066 34.8672 211.85 37.8901 210.082 40.5869C207.374 44.7597 203.63 48.1527 199.217 50.4314C194.63 52.8219 189.537 54.0699 184.368 54.0699C179.2 54.0699 174.107 52.8219 169.52 50.4314C165.126 48.1508 161.404 44.7569 158.723 40.5869C156.122 36.5519 154.738 31.8492 154.738 27.0442C154.738 22.2393 156.122 17.5366 158.723 13.5016C161.399 9.32909 165.115 5.92979 169.503 3.64006C174.072 1.20176 179.177 -0.0492039 184.351 0.00148107C190.232 -0.0430505 196.008 1.55854 201.03 4.62621L197.725 9.04691C193.681 6.62772 189.06 5.34725 184.351 5.34032C180.216 5.31156 176.138 6.31664 172.486 8.26479C168.962 10.1146 165.978 12.8507 163.825 16.205C161.755 19.439 160.654 23.2012 160.654 27.0442C160.654 30.8873 161.755 34.6495 163.825 37.8835C165.974 41.232 168.961 43.9577 172.486 45.7897C176.024 47.6392 179.942 48.6388 183.931 48.7097C187.919 48.7805 191.87 47.9206 195.471 46.1978C198.789 44.6297 201.692 42.2998 203.946 39.3967C205.772 37.0521 207.036 34.318 207.641 31.4054H208.404C212.268 31.0824 213.438 31.5585 213.658 31.6945Z" fill="#F9F9F9"/>
<path d="M261 6.76893V1.41309H225.625V52.7612H261V47.3543H231.507V29.7056H254.424V24.3497H231.507V6.76893H261Z" fill="#F9F9F9"/>
</svg>
